<?xml version="1.0" encoding="UTF-8" standalone="no"?>
<!-- Created with Inkscape (http://www.inkscape.org/) -->

<svg
   width="1504"
   height="966"
   viewBox="0 0 397.93334 255.5875"
   version="1.1"
   id="svg5"
   xml:space="preserve"
   inkscape:version="1.2.2 (732a01da63, 2022-12-09, custom)"
   sodipodi:docname="neofuzz.svg"
   inkscape:export-filename="../32f55938/logo.png"
   inkscape:export-xdpi="96"
   inkscape:export-ydpi="96"
   xmlns:inkscape="http://www.inkscape.org/namespaces/inkscape"
   xmlns:sodipodi="http://sodipodi.sourceforge.net/DTD/sodipodi-0.dtd"
   xmlns="http://www.w3.org/2000/svg"
   xmlns:svg="http://www.w3.org/2000/svg"><sodipodi:namedview
     id="namedview7"
     pagecolor="#ffffff"
     bordercolor="#000000"
     borderopacity="0.25"
     inkscape:showpageshadow="2"
     inkscape:pageopacity="0.0"
     inkscape:pagecheckerboard="0"
     inkscape:deskcolor="#d1d1d1"
     inkscape:document-units="mm"
     showgrid="false"
     inkscape:zoom="0.45745301"
     inkscape:cx="545.41121"
     inkscape:cy="494.03981"
     inkscape:window-width="1920"
     inkscape:window-height="1131"
     inkscape:window-x="0"
     inkscape:window-y="32"
     inkscape:window-maximized="1"
     inkscape:current-layer="layer1" /><defs
     id="defs2"><filter
       inkscape:collect="always"
       style="color-interpolation-filters:sRGB"
       id="filter961"
       x="-0.053649052"
       y="-0.086655786"
       width="1.1072981"
       height="1.1733116"><feGaussianBlur
         inkscape:collect="always"
         stdDeviation="8.4953385"
         id="feGaussianBlur963" /></filter></defs><g
     inkscape:label="Layer 1"
     inkscape:groupmode="layer"
     id="layer1"><rect
       style="opacity:0.993849;fill:#ffffff;fill-opacity:1;stroke-width:4.63552"
       id="rect9203"
       width="380.0405"
       height="235.28506"
       x="8.8736391"
       y="9.4829035"
       ry="16.953865" /><rect
       style="opacity:0.385;fill:#040404;fill-opacity:1;stroke-width:4.63552;filter:url(#filter961)"
       id="rect405"
       width="380.0405"
       height="235.28506"
       x="10.46114"
       y="11.070397"
       ry="16.953865" /><rect
       style="opacity:0.993849;fill:#ffffff;fill-opacity:1;stroke-width:4.63552"
       id="rect49025"
       width="380.0405"
       height="235.28506"
       x="8.8736391"
       y="9.4829035"
       ry="16.953865" /><path
       style="opacity:1;fill:#3f5346;fill-opacity:1;stroke-width:0.72873;stroke-linecap:round;stroke-linejoin:round"
       d="m 255.9601,143.10694 13.26706,6.36455 25.78714,3.68774 8.64985,21.78975 15.67634,4.31554 6.85634,-0.36832 14.28879,14.91131 31.9634,-16.74789 15.85841,-25.1898 -14.83732,-31.81605 -19.22948,-3.48208 17.14475,-15.62265 -11.35484,-26.859051 -12.08966,2.61898 -3.19213,-29.81473 -10.34772,-5.626465 -34.83727,29.396575 -13.01567,20.36038 0.0906,27.816101 -33.36069,7.77162 z"
       id="path9083" /><path
       id="path9075"
       style="opacity:1;fill:#799b83;fill-opacity:1;stroke-width:1.068;stroke-linecap:round;stroke-linejoin:round"
       d="M 47.262748 9.4831421 L 16.466178 50.03984 L 11.106816 93.333321 L 50.598979 126.3096 L 78.279976 118.95863 L 65.258032 150.3593 L 97.043689 178.92655 L 111.45366 167.92567 L 134.24917 205.49598 L 151.48068 206.51969 L 179.40197 145.82986 L 183.996 110.71366 L 166.55986 73.864225 L 205.98381 42.785502 L 192.15726 22.570199 L 170.59269 22.385197 L 134.08329 33.545239 L 109.04244 10.02006 L 85.556535 14.053406 L 76.689376 18.810221 L 52.500155 9.4831421 L 47.262748 9.4831421 z " /><path
       style="opacity:1;fill:#4e6956;fill-opacity:1;stroke-width:1.00026;stroke-linecap:round;stroke-linejoin:round"
       d="m 255.7711,226.00636 14.92878,-13.60388 17.9691,-30.91232 32.17824,0.21288 13.56217,-17.72432 3.06145,-8.91347 26.3296,-10.50343 -4.85286,-49.292404 -23.88604,-33.147174 -48.12121,2.497743 -14.33105,22.674382 -11.05073,-29.858118 -40.02104,0.618894 -2.89219,16.731021 -39.57907,-11.28892 -12.48667,10.269348 19.46709,59.461398 19.20482,27.04364 35.43924,14.20613 -7.28775,46.44874 z"
       id="path9077" /><path
       style="opacity:1;fill:#658870;fill-opacity:1;stroke-width:0.546398;stroke-linecap:round;stroke-linejoin:round"
       d="m 227.86779,189.07531 -2.69869,-10.69785 -10.24832,-16.62715 8.4042,-15.43881 -5.03528,-11.10286 -3.50199,-3.77367 1.73543,-15.38742 -24.98613,-10.38035 -22.12264,2.94937 -11.21219,23.81461 7.22035,12.75015 -17.22757,-2.38225 -10.02708,19.42968 7.30978,5.70904 -15.64663,16.14476 1.72321,8.66169 33.6528,5.96715 17.97611,-2.27004 15.98322,-13.39882 20.48474,15.49239 z"
       id="path9079" /><path
       style="opacity:1;fill:#84a38e;fill-opacity:1;stroke-width:0.72873;stroke-linecap:round;stroke-linejoin:round"
       d="m 211.97786,216.56769 14.59391,-1.88155 23.64024,-10.94145 19.11593,13.57182 15.49987,-4.91179 5.55139,-4.04067 20.10279,4.73232 17.69909,-31.44667 -0.40622,-29.76323 -29.76367,-18.61535 -18.02701,7.54485 5.88,-22.43736 -24.14424,-16.35227 -8.71672,8.77711 -18.90513,-23.274534 -11.74313,0.91184 -13.22573,43.621944 0.16253,24.16457 15.21547,23.28589 -23.7568,24.67688 z"
       id="path9081" /><path
       style="opacity:1;fill:#b2c6b8;fill-opacity:1;stroke-width:0.55072;stroke-linecap:round;stroke-linejoin:round"
       d="m 251.33461,209.91026 2.51918,-10.83117 -1.50907,-19.62834 14.65582,-9.95501 0.61242,-12.27245 -1.39627,-4.99759 8.65663,-12.98674 -15.76655,-19.31256 -23.88762,-5.6013 -20.1649,12.67775 0.58521,14.75695 -14.33707,-10.08549 -17.95184,12.78198 3.91497,8.48912 -21.47111,7.24502 -2.4535,8.55649 27.40015,20.8783 17.1549,6.26234 20.5054,-4.62921 11.20498,23.33589 z"
       id="path9085"
       sodipodi:nodetypes="ccccccccccccccccccccc" /><path
       style="opacity:1;fill:#5b7a65;fill-opacity:1;stroke-width:0.718711;stroke-linecap:round;stroke-linejoin:round"
       d="m 32.053565,217.20308 14.497061,-0.66649 24.123199,-8.83834 17.689245,14.88937 15.63317,-3.57153 5.78406,-3.52167 19.37574,6.28091 19.9456,-29.47478 2.01316,-29.28763 -27.74627,-20.70979 -18.33055,5.95476 7.5982,-21.57738 -22.406289,-18.0299 -9.27922,7.92062 -16.695595,-24.409225 -11.616402,-0.0556 -16.535532,41.804615 -1.798893,23.76489 13.068065,24.12131 -25.351085,22.32965 z"
       id="path9087" /><path
       style="fill:#000000;stroke-width:0.718527;stroke-linecap:round;stroke-linejoin:round"
       d="m 157.20891,66.166983 -4.62545,6.824245 -6.2234,3.781659 -15.21649,-4.518742 -23.18933,-4.441019 -19.592114,12.189231 -9.049413,10.47129 -9.964349,8.975553 1.542424,4.07518 11.484239,-10.005111 23.452083,-8.152265 4.6552,-5.31249 25.46837,3.45785 6.6935,2.73509 4.9738,3.131152 4.61865,1.432907 3.3718,-6.206314 -2.37553,-0.677794 7.33359,-10.243757 0.26438,-5.387282 z"
       id="path9089"
       sodipodi:nodetypes="ccccccccccccccccccccc" /><path
       style="fill:#303030;fill-opacity:1;stroke-width:0.718527;stroke-linecap:round;stroke-linejoin:round"
       d="m 70.119579,101.4868 3.162941,10.02445 4.732159,4.63223 5.209329,1.50866 8.841672,-6.4314 3.101638,-5.22611 9.365852,-7.95903 13.92357,22.43027 7.53079,8.28815 10.81259,6.43455 6.30604,-5.58095 2.88634,-7.0835 -3.49255,-2.17147 -1.94371,0.84394 -2.75458,1.72317 -5.20601,-1.53735 -11.85246,-18.7669 -6.11751,-15.679881 -8.79859,-1.568633 -24.223293,6.114683 z"
       id="path9091" /><path
       style="fill:#1f1f1f;fill-opacity:1;stroke-width:0.880505;stroke-linecap:round;stroke-linejoin:round"
       d="m 89.327068,194.70578 -17.093107,-2.93079 -8.912087,2.2006 -11.665778,10.32565 -5.73646,12.00922 17.7855,-2.52403 24.833692,8.95647 -3.80446,-5.44934 -0.94444,-8.05967 4.70343,-11.99183 z"
       id="path9093" /><path
       style="fill:#1f1f1f;fill-opacity:1;stroke-width:0.880505;stroke-linecap:round;stroke-linejoin:round"
       d="m 76.41898,192.85947 -4.112556,-5.2157 2.813203,-7.90326 -4.785672,-24.27129 -1.80473,-11.28309 -4.854001,2.63855 -4.562635,-1.02855 1.323461,16.38318 2.455595,17.09608 -4.339061,10.28964 -9.554803,7.6457 -3.078145,19.09973 5.73646,-12.00922 11.665778,-10.32565 4.45604,-1.10031 4.456047,-1.10029 z"
       id="path9095"
       sodipodi:nodetypes="ccccccccccccccccc" /><path
       style="opacity:1;fill:#d1b5b7;fill-opacity:1;stroke-width:0.880505;stroke-linecap:round;stroke-linejoin:round"
       d="m 66.102225,145.50541 -0.586468,-3.46634 0.698854,-2.51152 -0.625594,-1.08861 -1.536221,1.83053 -0.561489,2.85582 -1.578505,-0.72582 -0.502882,-3.09765 1.042246,-1.87513 1.709595,-0.69063 -0.922046,-1.15684 1.793327,-0.68442 -1.717592,-0.7622 0.879061,-1.46625 -0.802915,-0.36537 -4.162798,1.73106 -1.21268,1.99182 0.0214,3.4353 -1.0866,1.6627 2.161635,4.67417 4.562639,1.02856 z"
       id="path9097" /><path
       id="path9099"
       style="opacity:1;fill:#474747;fill-opacity:1;stroke-width:0.755231;stroke-linecap:round;stroke-linejoin:round"
       d="M 243.74946 116.32572 L 235.82902 121.43445 L 238.13999 124.66164 L 237.04703 127.51935 L 223.23185 129.48202 L 215.24733 131.88032 L 215.63955 141.75982 L 203.45115 133.18567 L 201.366 133.18567 L 200.47097 143.80001 L 205.46601 153.30692 L 200.13765 153.49709 L 200.61359 159.80575 L 208.34852 172.73106 L 213.06451 173.01321 L 219.36904 179.71151 L 216.92681 190.5093 L 221.16324 192.8921 L 228.40156 191.25809 L 230.00457 194.59691 L 234.88489 194.97156 L 242.61465 193.02388 L 246.4878 189.61375 L 249.14758 185.74163 L 246.79992 174.62448 L 242.74436 171.38799 L 241.79454 163.87734 L 250.19351 159.45848 L 267.4736 160.02072 L 267.61312 157.22348 L 266.21683 152.22585 L 274.72587 139.46022 L 274.39772 138.65665 L 259.10667 119.92653 L 243.74946 116.32572 z " /><path
       id="path9101"
       style="fill:#222222;fill-opacity:1;stroke-width:0.755231;stroke-linecap:round;stroke-linejoin:round"
       d="M 250.19351 159.45848 L 241.79454 163.87734 L 242.74436 171.38799 L 246.79992 174.62448 L 247.97401 180.18332 L 249.14758 185.74163 L 252.63884 183.27615 L 252.3448 179.45055 L 267.00076 169.4956 L 267.4736 160.02072 L 250.19351 159.45848 z " /><path
       style="opacity:1;fill:#896e70;fill-opacity:1;stroke-width:0.755231;stroke-linecap:round;stroke-linejoin:round"
       d="m 233.5999,152.65627 -0.006,2.98263 -2.06747,2.36319 -2.8197,1.25703 -2.37,-0.18003 -0.3627,1.31551 -3.40556,-0.57527 -0.10852,-1.31329 -0.50594,-1.0295 0.35248,-1.83764 -0.14926,-0.71399 1.00581,-1.46884 0.20744,-1.68397 1.39485,-0.43121 1.17595,-0.85216 4.17575,0.79355 z"
       id="path9103" /><path
       style="opacity:1;fill:#6a5657;fill-opacity:1;stroke-width:0.755231;stroke-linecap:round;stroke-linejoin:round"
       d="m 233.59424,155.6389 -0.82328,-1.72221 -2.04926,1.20861 -1.62991,-1.63421 -2.98601,0.0517 -0.63797,1.89889 -0.0792,0.59663 0.98909,0.97536 -0.0407,2.06544 2.37,0.18003 2.81969,-1.25703 z"
       id="path9105" /><path
       style="opacity:0.634073;fill:#000000;fill-opacity:1;stroke-width:0.755231;stroke-linecap:round;stroke-linejoin:round"
       d="m 230.11736,151.28228 4.57084,-3.56919 2.23008,-6.24259 0.21357,-6.28034 -1.4275,-3.86478 3.04737,-8.79098 6.58157,-2.99205 8.91638,2.20109 3.83264,3.22141 -5.47816,11.57832 -5.4244,6.32569 -0.55306,7.61987 -10.85895,9.09709 -7.06067,-0.32669 2.8197,-1.25703 2.06747,-2.3632 0.006,-2.98263 z"
       id="path9107" /><path
       style="opacity:1;fill:#d1b5b7;fill-opacity:1;stroke-width:0.913572;stroke-linecap:round;stroke-linejoin:round"
       d="m 238.84184,97.52494 6.28923,3.28233 0.86294,-3.35154 5.95604,-1.437063 0.54393,-2.047302 -0.27855,-1.543392 0.64575,-2.002592 -0.34858,-1.790105 1.30307,-0.614862 -1.42089,-2.69698 -0.63143,-2.931511 -4.0705,-5.31909 -2.99093,-2.67276 -1.56825,0.01977 -0.32174,4.989066 -0.0818,4.741254 -3.43231,-2.507594 -3.4044,-1.653452 -1.33895,1.316724 0.56631,3.979086 1.81139,4.168664 -2.29578,2.073882 z"
       id="path9170"
       sodipodi:nodetypes="ccccccccccccccccccccccc" /><path
       style="opacity:1;fill:#000000;fill-opacity:1;stroke-width:0.913572;stroke-linecap:round;stroke-linejoin:round"
       d="m 250.5823,83.97243 -2.36148,-2.886464 -0.56018,-1.36686 1.48049,-0.839412 1.25306,0.224054 0.71616,2.434251 0.6534,0.853836 0.31523,1.465861 z"
       id="path9172"
       sodipodi:nodetypes="ccccccccc" /><path
       style="opacity:1;fill:#000000;fill-opacity:1;stroke-width:0.913572;stroke-linecap:round;stroke-linejoin:round"
       d="m 246.1978,75.736377 0.64929,-1.045363 -1.14328,-2.959599 -4.16917,-1.023715 -11.54795,2.004492 -5.06445,5.096016 -0.28559,10.250835 2.08935,2.445548 1.75272,0.593556 3.7929,-2.944124 2.36517,3.373351 2.29577,-2.073872 -1.81137,-4.168663 -0.56632,-3.979087 1.33895,-1.316725 3.4044,1.653452 3.4323,2.507593 0.4036,-9.730318 1.56826,-0.01977 z"
       id="path9174"
       sodipodi:nodetypes="cccccccccccccccccccc" /><path
       style="opacity:1;fill:#000000;fill-opacity:1;stroke-width:1.068;stroke-linecap:round;stroke-linejoin:round"
       d="m 61.639531,83.79814 -1.619686,2.533689 1.97242,-1.292669 1.286302,-0.851211 -1.043068,-1.251113 z"
       id="path9178"
       sodipodi:nodetypes="cccccc" /><path
       style="opacity:0.525165;fill:#ffffff;fill-opacity:1;stroke-width:1.068;stroke-linecap:round;stroke-linejoin:round"
       d="m 62.235499,82.936836 57.069171,-63.201369 1.28448,1.147531 -57.310592,63.304941 z"
       id="path9180"
       sodipodi:nodetypes="ccccc" /><path
       style="opacity:1;fill:#000000;fill-opacity:1;stroke-width:1.068;stroke-linecap:round;stroke-linejoin:round"
       d="m 291.65846,97.147132 -2.46206,-1.72664 1.20708,2.025945 0.79539,1.321548 1.2946,-0.988575 z"
       id="path9186"
       sodipodi:nodetypes="cccccc" /><path
       style="opacity:0.525165;fill:#ffffff;fill-opacity:1;stroke-width:1.068;stroke-linecap:round;stroke-linejoin:round"
       d="m 292.49347,97.77941 55.41399,53.20552 -2.41917,0.95886 -54.28942,-53.17582 z"
       id="path9188"
       sodipodi:nodetypes="ccccc" /><path
       style="fill:#1f1f1f;fill-opacity:1;stroke-width:0.901297;stroke-linecap:round;stroke-linejoin:round"
       d="m 288.93847,150.59111 -0.0803,6.7984 -7.32373,4.48347 -11.80165,22.40452 -5.82072,10.14512 5.56226,1.02133 2.97142,3.75386 9.48452,-13.89654 9.0416,-15.19241 10.07374,-5.40212 12.52609,0.0581 14.73672,-13.22832 -12.29252,5.87251 -15.93085,0.71797 -4.2559,-1.99017 -4.2559,-1.9902 z"
       id="path9192"
       sodipodi:nodetypes="ccccccccccccccccc" /><path
       style="opacity:1;fill:#d1b5b7;fill-opacity:1;stroke-width:0.901297;stroke-linecap:round;stroke-linejoin:round"
       d="m 266.6932,194.93327 -1.76272,3.13735 -2.17196,1.55028 -0.20211,1.26923 2.4007,-0.46942 2.28405,-1.91279 0.79003,1.59329 -1.59211,2.78999 -2.03606,0.82268 -1.80551,-0.54976 -0.01,1.51423 -1.86819,-0.60856 0.87736,1.71174 -1.6431,0.60206 0.40431,0.80738 4.42815,1.29933 2.24681,-0.80597 2.19268,-2.74914 1.93473,-0.625 1.28541,-5.11228 -2.97142,-3.75387 z"
       id="path9194" /><path
       id="path9190"
       style="fill:#1f1f1f;fill-opacity:1;stroke-width:0.901297;stroke-linecap:round;stroke-linejoin:round"
       d="M 298.01127 133.27094 L 279.98394 140.81621 L 280.01133 140.71234 L 279.84803 140.81776 L 291.57342 154.14666 L 300.08504 158.12678 L 316.01585 157.409 L 327.68904 151.83259 L 298.01127 133.27094 z " /><path
       style="opacity:1;fill:#000000;fill-opacity:1;stroke-width:1.068;stroke-linecap:round;stroke-linejoin:round"
       d="m 88.316416,133.64737 -1.1582,-2.77518 -0.06248,2.35746 -0.034,1.54206 1.622539,-0.14368 z"
       id="path9199"
       sodipodi:nodetypes="cccccc" /><path
       style="opacity:0.525165;fill:#ffffff;fill-opacity:1;stroke-width:1.068;stroke-linecap:round;stroke-linejoin:round"
       d="m 88.684272,134.62803 18.787708,82.234 -1.62582,1.08254 -18.784419,-83.17287 z"
       id="path9201"
       sodipodi:nodetypes="ccccc" /></g></svg>
